<svg version="1.1" id="Layer_1" xmlns="http://www.w3.org/2000/svg" xmlns:xlink="http://www.w3.org/1999/xlink" x="0px" y="0px"
	 width="100%" viewBox="0 0 128 128" enable-background="new 0 0 128 128" xml:space="preserve">
<path fill="#010101" opacity="1.000000" stroke="none" 
	d="
M1.000000,38.000000 
	C1.000000,30.312424 1.000000,22.624847 1.309128,14.111151 
	C2.071965,13.877756 2.641558,14.414724 2.958416,15.073293 
	C4.064827,17.372896 5.083899,19.714523 6.136160,22.040182 
	C7.076963,19.356737 8.017766,16.673292 9.240583,13.803326 
	C9.728679,12.985656 9.922984,12.350016 10.159416,11.730450 
	C10.182547,11.669838 10.464945,11.708164 10.685390,11.697829 
	C11.415648,14.523005 12.067095,17.386086 12.938005,20.180775 
	C13.166646,20.914467 13.984588,21.708759 14.707126,21.949652 
	C15.118699,22.086870 16.277718,21.266212 16.429039,20.698124 
	C17.710653,15.886680 18.837606,11.034038 20.010981,6.193761 
	C19.402113,5.992105 18.793245,5.790449 18.184378,5.588792 
	C16.991352,9.259973 15.798326,12.931153 14.463824,17.037682 
	C13.632664,13.768395 13.038013,11.016578 12.194717,8.343194 
	C11.911355,7.444890 10.995363,6.746146 10.368525,5.956190 
	C9.736796,6.784396 8.849075,7.525029 8.529256,8.459934 
	C7.951160,10.149844 7.712227,11.955778 7.201316,14.050497 
	C6.975860,14.862363 6.896400,15.341388 6.765884,15.806073 
	C6.749548,15.864235 6.463511,15.846647 5.859661,15.912292 
	C5.245636,13.570562 4.826752,11.063634 3.885528,8.771163 
	C3.422234,7.642752 1.992435,6.911160 1.000000,6.000000 
	C1.000000,4.334984 1.000000,2.669968 1.000000,1.003714 
	C43.622753,1.002476 86.245506,1.002476 128.934128,1.002476 
	C128.934128,43.580402 128.934128,86.160934 128.934128,128.870728 
	C86.333572,128.870728 43.666851,128.870728 1.000000,128.870728 
	C1.000000,111.569641 1.000000,94.253479 1.433732,76.471634 
	C5.984421,75.558304 3.107525,72.367798 3.977865,70.656364 
	C4.746040,69.145828 5.631967,67.695183 6.465900,66.218086 
	C7.307896,67.635330 8.459800,68.961433 8.910423,70.493767 
	C9.428820,72.256561 9.326974,74.201759 9.494517,76.067726 
	C12.372426,66.003967 11.858676,65.228401 2.495920,64.018715 
	C2.004674,63.955242 1.498972,64.003662 1.000000,64.000000 
	C1.000000,58.977909 1.000000,53.955814 1.306445,48.127956 
	C4.567314,49.315689 8.115986,50.614597 10.312556,47.263493 
	C11.618690,45.270844 11.731401,41.337593 10.622929,39.179771 
	C8.748221,35.530357 5.196955,36.478531 2.092409,38.370430 
	C1.881748,38.498806 1.371119,38.134933 1.000000,38.000000 
M53.777676,65.389183 
	C52.567257,64.649902 51.356842,63.910614 49.589092,62.830929 
	C51.353436,61.787518 52.845264,60.905262 55.137508,59.549656 
	C51.236866,58.726238 48.978867,58.480740 47.909641,62.379864 
	C46.828960,66.320732 48.674023,70.064430 48.028656,73.916862 
	C47.917240,74.581909 48.567345,75.374527 48.865692,76.108223 
	C49.198635,76.053902 49.531574,75.999580 49.864517,75.945267 
	C49.864517,72.736717 49.864517,69.528168 49.864517,65.955383 
	C51.681068,65.955383 52.965298,65.955383 54.310364,66.833015 
	C54.195549,67.985130 53.987137,69.136917 53.983047,70.289429 
	C53.969501,74.107758 55.714516,76.213203 59.741760,76.058136 
	C63.625496,75.908600 65.064423,73.338264 64.818451,70.086151 
	C64.673759,68.173149 63.372044,64.954979 62.235500,64.791359 
	C59.642132,64.418022 56.830105,65.563583 53.777676,65.389183 
M29.995869,74.132607 
	C29.996916,72.803421 29.635172,71.330315 30.090900,70.181503 
	C30.659821,68.747345 31.901854,67.580215 32.853271,66.297791 
	C33.581306,67.516518 34.703949,68.662659 34.944588,69.971031 
	C35.302612,71.917610 35.037380,73.978821 35.037380,75.991249 
	C35.729321,76.041222 36.421265,76.091194 37.113205,76.141174 
	C37.270660,73.952965 37.196701,71.712265 37.676464,69.597160 
	C37.944073,68.417358 39.132328,67.446388 39.905697,66.381310 
	C40.590523,67.431206 41.646637,68.405273 41.879910,69.547401 
	C42.314251,71.673965 42.269512,73.898384 42.424183,76.082069 
	C42.962971,76.043327 43.501759,76.004578 44.040546,75.965828 
	C44.040546,73.374123 43.814541,70.757637 44.095310,68.196716 
	C44.483673,64.654381 42.428413,64.034424 39.705853,64.007942 
	C35.789936,63.969849 31.873373,63.998219 27.652039,63.998219 
	C27.652039,67.587982 27.563684,70.732872 27.754889,73.860664 
	C27.781160,74.290459 29.196283,74.635361 29.995869,74.132607 
M110.015953,68.787659 
	C109.771255,72.188782 110.244919,75.399391 114.333046,75.863647 
	C116.399117,76.098282 118.593147,75.206146 120.729317,74.823471 
	C120.608452,74.462318 120.487587,74.101158 120.366714,73.740005 
	C117.761383,73.376366 115.156044,73.012733 112.550705,72.649101 
	C112.609940,72.191269 112.669174,71.733444 112.728409,71.275612 
	C115.420563,71.097855 118.112709,70.920097 120.804855,70.742340 
	C121.105133,70.320541 121.405403,69.898735 121.705681,69.476936 
	C120.165131,67.659943 118.959114,64.987488 117.006607,64.223930 
	C113.982994,63.041508 111.167572,64.432053 110.015953,68.787659 
M52.493416,17.047291 
	C54.574593,17.047291 56.655769,17.047291 58.915649,17.047291 
	C58.543129,13.145728 58.110973,9.551988 53.799740,10.162768 
	C51.734879,10.455301 49.063911,12.473314 48.279579,14.374822 
	C47.141235,17.134586 47.781155,20.690601 51.368427,21.650698 
	C53.795956,22.300398 57.122135,23.384722 58.974045,19.026058 
	C56.938366,19.339783 55.411667,19.965878 54.115330,19.649137 
	C53.108414,19.403112 52.388908,17.980799 52.493416,17.047291 
M35.708584,19.548759 
	C39.743134,23.180172 43.414272,23.132877 45.297840,19.674803 
	C42.802124,19.358437 40.189999,19.027315 37.577877,18.696192 
	C37.629761,18.228741 37.681644,17.761288 37.733524,17.293835 
	C40.416927,17.115057 43.100330,16.936277 45.934498,16.747454 
	C45.482826,13.052619 44.993889,9.456218 40.689259,10.160259 
	C38.633911,10.496422 36.615604,12.686499 35.185028,14.510875 
	C34.496368,15.389104 35.208424,17.365696 35.708584,19.548759 
M14.907417,73.542915 
	C17.374891,78.431358 21.398878,74.747749 24.614977,75.893791 
	C25.257095,65.668129 25.246506,65.605209 22.048809,63.659649 
	C22.048809,65.965080 22.392048,67.955803 21.940248,69.745865 
	C21.578558,71.178909 20.250805,72.368126 19.351799,73.665558 
	C18.578007,72.451408 17.387327,71.319199 17.128807,70.003784 
	C16.747662,68.064400 17.030420,65.994530 17.030420,63.980236 
	C16.243294,63.953571 15.456166,63.926907 14.669040,63.900242 
	C14.669040,66.840561 14.669040,69.780884 14.907417,73.542915 
M94.858391,65.896805 
	C94.478729,65.272507 94.099075,64.648209 93.719414,64.023903 
	C93.174088,64.454895 92.221519,64.833466 92.158051,65.326492 
	C91.948311,66.955750 92.402794,68.730370 91.942368,70.249123 
	C91.553391,71.532219 90.246712,72.537109 89.346199,73.665131 
	C88.575874,72.616463 87.331894,71.647980 87.137833,70.501755 
	C86.779037,68.382378 87.035210,66.158890 87.035210,63.978775 
	C86.449814,63.963703 85.864418,63.948631 85.279022,63.933559 
	C83.464294,66.962845 83.425400,71.132347 85.234016,73.426834 
	C86.896866,75.536392 91.041985,75.689293 94.864304,76.960518 
	C94.864304,72.689613 94.864304,69.751198 94.858391,65.896805 
M22.690538,9.658722 
	C22.690538,13.761834 22.690538,17.864946 22.690538,21.968060 
	C23.451658,21.970247 24.212780,21.972435 24.973900,21.974623 
	C24.973900,19.829453 24.630888,17.605196 25.100521,15.568308 
	C25.389523,14.314855 26.919952,13.347631 27.892979,12.251889 
	C28.590456,13.302601 29.673351,14.276160 29.902452,15.420632 
	C30.334301,17.577913 30.274252,19.833666 30.418674,22.048485 
	C31.029644,21.996098 31.640614,21.943712 32.251583,21.891325 
	C31.880968,18.429399 31.981590,14.807353 30.888670,11.590858 
	C30.496758,10.437449 27.225504,10.262402 25.074844,9.579359 
	C24.979000,8.351851 24.848345,6.678503 24.717690,5.005155 
	C24.208456,4.986429 23.699224,4.967703 23.189991,4.948977 
	C23.023520,6.203831 22.857050,7.458686 22.690538,9.658722 
M19.813574,31.983986 
	C17.191078,31.781664 15.732303,32.567749 14.851279,35.482452 
	C13.648525,39.461544 15.823213,43.143631 15.033167,46.983326 
	C14.904450,47.608902 15.599615,48.404003 15.913977,49.120747 
	C16.223490,49.058990 16.533001,48.997231 16.842514,48.935474 
	C16.842514,45.713051 16.842514,42.490627 16.842514,39.437565 
	C18.459663,39.019638 19.596657,38.725803 22.120893,38.073456 
	C19.498451,37.236420 18.278755,36.847118 16.329367,36.224907 
	C17.766836,35.242168 18.727589,34.743290 19.472433,34.021580 
	C19.984097,33.525810 20.195946,32.720615 19.813574,31.983986 
M102.526283,66.230484 
	C103.347427,67.494843 104.529198,68.662033 104.902412,70.047096 
	C105.419754,71.967026 105.329483,74.050697 105.499367,76.064255 
	C108.421135,65.306816 107.671844,64.282181 98.355072,64.429520 
	C98.355072,68.295998 98.355072,72.135452 98.355072,75.974907 
	C98.580673,75.949287 98.806267,75.923676 99.031868,75.898056 
	C99.912727,72.631805 100.793587,69.365547 102.526283,66.230484 
M82.903839,74.652092 
	C78.012100,73.685684 78.832855,70.039642 79.136711,66.561333 
	C80.448166,66.125931 81.775330,65.685318 82.883415,65.317436 
	C80.874832,63.739445 79.241989,62.456646 77.592728,61.160950 
	C73.628273,63.953514 77.157578,67.587524 76.852806,70.846024 
	C76.449745,75.155342 78.351799,77.149673 82.903839,74.652092 
M68.426460,64.049706 
	C67.119179,68.108017 67.314079,72.057724 69.011475,76.002609 
	C71.044670,72.229271 67.130531,65.758156 74.758545,64.330261 
	C72.919464,64.235367 71.080376,64.140465 68.426460,64.049706 
M63.977604,17.335527 
	C63.977604,13.240434 63.977604,9.145339 63.977604,5.050245 
	C63.474304,5.074524 62.971004,5.098804 62.467705,5.123083 
	C62.467705,10.724135 62.467705,16.325188 62.467705,21.926241 
	C62.851521,21.933535 63.235332,21.940826 63.619148,21.948120 
	C63.738628,20.727970 63.858105,19.507820 63.977604,17.335527 
z"/>
<path fill="#DEDEDE" opacity="1.000000" stroke="none" 
	d="
M1.000000,38.454109 
	C1.371119,38.134933 1.881748,38.498806 2.092409,38.370430 
	C5.196955,36.478531 8.748221,35.530357 10.622929,39.179771 
	C11.731401,41.337593 11.618690,45.270844 10.312556,47.263493 
	C8.115986,50.614597 4.567314,49.315689 1.306445,47.661095 
	C1.000000,44.969406 1.000000,41.938812 1.000000,38.454109 
M3.730463,41.208889 
	C4.347593,42.999702 4.897728,44.822525 5.709062,46.520546 
	C5.773952,46.656357 8.398026,46.114319 8.529585,45.571457 
	C8.929446,43.921471 8.689938,42.116535 8.699401,40.371933 
	C7.119835,40.416622 5.540270,40.461311 3.730463,41.208889 
z"/>
<path fill="#FAFAFA" opacity="1.000000" stroke="none" 
	d="
M1.000000,64.460632 
	C1.498972,64.003662 2.004674,63.955242 2.495920,64.018715 
	C11.858676,65.228401 12.372426,66.003967 9.494517,76.067726 
	C9.326974,74.201759 9.428820,72.256561 8.910423,70.493767 
	C8.459800,68.961433 7.307896,67.635330 6.465900,66.218086 
	C5.631967,67.695183 4.746040,69.145828 3.977865,70.656364 
	C3.107525,72.367798 5.984421,75.558304 1.433732,76.002975 
	C1.000000,72.307091 1.000000,68.614182 1.000000,64.460632 
z"/>
<path fill="#DEDEDE" opacity="1.000000" stroke="none" 
	d="
M8.958569,13.989847 
	C8.017766,16.673292 7.076963,19.356737 6.136160,22.040182 
	C5.083899,19.714523 4.064827,17.372896 2.958416,15.073293 
	C2.641558,14.414724 2.071965,13.877756 1.309128,13.642515 
	C1.000000,11.629442 1.000000,9.258885 1.000000,6.444164 
	C1.992435,6.911160 3.422234,7.642752 3.885528,8.771163 
	C4.826752,11.063634 5.245636,13.570562 5.859661,15.912292 
	C6.463511,15.846647 6.749548,15.864235 6.765884,15.806073 
	C6.896400,15.341388 6.975860,14.862363 7.603606,14.145956 
	C8.410357,13.932734 8.684463,13.961290 8.958569,13.989847 
z"/>
<path fill="#EAEAEA" opacity="1.000000" stroke="none" 
	d="
M29.982136,74.576080 
	C29.196283,74.635361 27.781160,74.290459 27.754889,73.860664 
	C27.563684,70.732872 27.652039,67.587982 27.652039,63.998219 
	C31.873373,63.998219 35.789936,63.969849 39.705853,64.007942 
	C42.428413,64.034424 44.483673,64.654381 44.095310,68.196716 
	C43.814541,70.757637 44.040546,73.374123 44.040546,75.965828 
	C43.501759,76.004578 42.962971,76.043327 42.424183,76.082069 
	C42.269512,73.898384 42.314251,71.673965 41.879910,69.547401 
	C41.646637,68.405273 40.590523,67.431206 39.905701,66.381310 
	C39.132328,67.446388 37.944073,68.417358 37.676464,69.597160 
	C37.196701,71.712265 37.270660,73.952965 37.113205,76.141174 
	C36.421265,76.091194 35.729321,76.041222 35.037380,75.991249 
	C35.037380,73.978821 35.302612,71.917610 34.944588,69.971031 
	C34.703949,68.662659 33.581306,67.516518 32.853271,66.297791 
	C31.901854,67.580215 30.659821,68.747345 30.090900,70.181503 
	C29.635172,71.330315 29.996916,72.803421 29.982136,74.576080 
z"/>
<path fill="#E7E7E7" opacity="1.000000" stroke="none" 
	d="
M110.056000,68.380981 
	C111.167572,64.432053 113.982994,63.041508 117.006607,64.223930 
	C118.959114,64.987488 120.165131,67.659943 121.705681,69.476936 
	C121.405403,69.898735 121.105133,70.320541 120.804855,70.742340 
	C118.112709,70.920097 115.420563,71.097855 112.728409,71.275612 
	C112.669174,71.733444 112.609940,72.191269 112.550705,72.649101 
	C115.156044,73.012733 117.761383,73.376366 120.366714,73.740005 
	C120.487587,74.101158 120.608452,74.462318 120.729317,74.823471 
	C118.593147,75.206146 116.399117,76.098282 114.333046,75.863647 
	C110.244919,75.399391 109.771255,72.188782 110.056000,68.380981 
z"/>
<path fill="#E7E7E7" opacity="1.000000" stroke="none" 
	d="
M52.017532,17.064302 
	C52.388908,17.980799 53.108414,19.403112 54.115330,19.649137 
	C55.411667,19.965878 56.938366,19.339783 58.974045,19.026058 
	C57.122135,23.384722 53.795956,22.300398 51.368427,21.650698 
	C47.781155,20.690601 47.141235,17.134586 48.279579,14.374822 
	C49.063911,12.473314 51.734879,10.455301 53.799740,10.162768 
	C58.110973,9.551988 58.543129,13.145728 58.915649,17.047291 
	C56.655769,17.047291 54.574593,17.047291 52.017532,17.064302 
z"/>
<path fill="#E7E7E7" opacity="1.000000" stroke="none" 
	d="
M35.497383,19.196836 
	C35.208424,17.365696 34.496368,15.389104 35.185028,14.510875 
	C36.615604,12.686499 38.633911,10.496422 40.689259,10.160259 
	C44.993889,9.456218 45.482826,13.052619 45.934498,16.747454 
	C43.100330,16.936277 40.416927,17.115057 37.733524,17.293835 
	C37.681644,17.761288 37.629761,18.228741 37.577877,18.696192 
	C40.189999,19.027315 42.802124,19.358437 45.297840,19.674803 
	C43.414272,23.132877 39.743134,23.180172 35.497383,19.196836 
z"/>
<path fill="#D7D7D7" opacity="1.000000" stroke="none" 
	d="
M9.240583,13.803326 
	C8.684463,13.961290 8.410357,13.932734 7.733961,13.808722 
	C7.712227,11.955778 7.951160,10.149844 8.529256,8.459934 
	C8.849075,7.525029 9.736796,6.784396 10.368525,5.956190 
	C10.995363,6.746146 11.911355,7.444890 12.194717,8.343194 
	C13.038013,11.016578 13.632664,13.768395 14.463824,17.037682 
	C15.798326,12.931153 16.991352,9.259973 18.184378,5.588792 
	C18.793245,5.790449 19.402113,5.992105 20.010981,6.193761 
	C18.837606,11.034038 17.710653,15.886680 16.429039,20.698124 
	C16.277718,21.266212 15.118699,22.086870 14.707126,21.949652 
	C13.984588,21.708759 13.166646,20.914467 12.938005,20.180775 
	C12.067095,17.386086 11.415648,14.523005 10.685390,11.697829 
	C10.464945,11.708164 10.182547,11.669838 10.159416,11.730450 
	C9.922984,12.350016 9.728679,12.985656 9.240583,13.803326 
z"/>
<path fill="#D3D3D3" opacity="1.000000" stroke="none" 
	d="
M14.788229,73.132065 
	C14.669040,69.780884 14.669040,66.840561 14.669040,63.900242 
	C15.456166,63.926907 16.243294,63.953571 17.030420,63.980236 
	C17.030420,65.994530 16.747662,68.064400 17.128807,70.003784 
	C17.387327,71.319199 18.578007,72.451408 19.351801,73.665558 
	C20.250805,72.368126 21.578558,71.178909 21.940248,69.745865 
	C22.392048,67.955803 22.048809,65.965080 22.048809,63.659649 
	C25.246506,65.605209 25.257095,65.668129 24.614977,75.893791 
	C21.398878,74.747749 17.374891,78.431358 14.788229,73.132065 
z"/>
<path fill="#D3D3D3" opacity="1.000000" stroke="none" 
	d="
M94.861343,66.354790 
	C94.864304,69.751198 94.864304,72.689613 94.864304,76.960518 
	C91.041985,75.689293 86.896866,75.536392 85.234016,73.426834 
	C83.425400,71.132347 83.464294,66.962845 85.279022,63.933559 
	C85.864418,63.948631 86.449814,63.963703 87.035210,63.978775 
	C87.035210,66.158890 86.779037,68.382378 87.137833,70.501755 
	C87.331894,71.647980 88.575874,72.616463 89.346199,73.665131 
	C90.246712,72.537109 91.553391,71.532219 91.942368,70.249123 
	C92.402794,68.730370 91.948311,66.955750 92.158051,65.326492 
	C92.221519,64.833466 93.174088,64.454895 93.719414,64.023911 
	C94.099075,64.648209 94.478729,65.272507 94.861343,66.354790 
z"/>
<path fill="#DEDEDE" opacity="1.000000" stroke="none" 
	d="
M54.106907,66.092087 
	C56.830105,65.563583 59.642132,64.418022 62.235500,64.791359 
	C63.372044,64.954979 64.673759,68.173149 64.818451,70.086151 
	C65.064423,73.338264 63.625496,75.908600 59.741760,76.058136 
	C55.714516,76.213203 53.969501,74.107758 53.983047,70.289429 
	C53.987137,69.136917 54.195549,67.985130 54.246521,66.430702 
	C54.182674,66.028389 54.106907,66.092087 54.106907,66.092087 
M60.322517,73.501015 
	C60.949963,72.466789 62.069305,71.436539 62.077713,70.397308 
	C62.087742,69.157158 61.348763,67.741463 60.521816,66.743607 
	C60.168167,66.316879 58.287254,66.402138 57.948059,66.869728 
	C57.177185,67.932373 56.324432,69.550331 56.631577,70.618660 
	C56.984543,71.846336 58.553257,72.724480 60.322517,73.501015 
z"/>
<path fill="#F7F7F7" opacity="1.000000" stroke="none" 
	d="
M22.690559,9.186131 
	C22.857050,7.458686 23.023520,6.203831 23.189991,4.948977 
	C23.699224,4.967703 24.208456,4.986429 24.717690,5.005155 
	C24.848345,6.678503 24.979000,8.351851 25.074844,9.579359 
	C27.225504,10.262402 30.496758,10.437449 30.888670,11.590858 
	C31.981590,14.807353 31.880968,18.429399 32.251583,21.891325 
	C31.640614,21.943712 31.029644,21.996098 30.418674,22.048485 
	C30.274252,19.833666 30.334301,17.577913 29.902452,15.420632 
	C29.673351,14.276160 28.590456,13.302601 27.892979,12.251889 
	C26.919952,13.347631 25.389523,14.314855 25.100521,15.568308 
	C24.630888,17.605196 24.973900,19.829453 24.973900,21.974623 
	C24.212780,21.972435 23.451658,21.970247 22.690538,21.968060 
	C22.690538,17.864946 22.690538,13.761834 22.690559,9.186131 
z"/>
<path fill="#EEEEEE" opacity="1.000000" stroke="none" 
	d="
M20.177691,32.018856 
	C20.195946,32.720615 19.984097,33.525810 19.472433,34.021580 
	C18.727589,34.743290 17.766836,35.242168 16.329367,36.224907 
	C18.278755,36.847118 19.498451,37.236420 22.120893,38.073456 
	C19.596657,38.725803 18.459663,39.019638 16.842514,39.437565 
	C16.842514,42.490627 16.842514,45.713051 16.842514,48.935474 
	C16.533001,48.997231 16.223490,49.058990 15.913977,49.120747 
	C15.599615,48.404003 14.904450,47.608902 15.033167,46.983326 
	C15.823213,43.143631 13.648525,39.461544 14.851279,35.482452 
	C15.732303,32.567749 17.191078,31.781664 20.177691,32.018856 
z"/>
<path fill="#EEEEEE" opacity="1.000000" stroke="none" 
	d="
M54.216103,65.991882 
	C52.965298,65.955383 51.681068,65.955383 49.864517,65.955383 
	C49.864517,69.528168 49.864517,72.736717 49.864517,75.945267 
	C49.531574,75.999580 49.198635,76.053902 48.865692,76.108223 
	C48.567345,75.374527 47.917240,74.581909 48.028656,73.916862 
	C48.674023,70.064430 46.828960,66.320732 47.909641,62.379864 
	C48.978867,58.480740 51.236866,58.726238 55.137508,59.549656 
	C52.845264,60.905262 51.353436,61.787518 49.589092,62.830929 
	C51.356842,63.910614 52.567257,64.649902 53.942291,65.740631 
	C54.106907,66.092087 54.182674,66.028389 54.216103,65.991882 
z"/>
<path fill="#F9F9F9" opacity="1.000000" stroke="none" 
	d="
M102.100365,66.164886 
	C100.793587,69.365547 99.912727,72.631805 99.031868,75.898056 
	C98.806267,75.923676 98.580673,75.949287 98.355072,75.974907 
	C98.355072,72.135452 98.355072,68.295998 98.355072,64.429520 
	C107.671844,64.282181 108.421135,65.306816 105.499367,76.064255 
	C105.329483,74.050697 105.419754,71.967026 104.902412,70.047096 
	C104.529198,68.662033 103.347427,67.494843 102.100365,66.164886 
z"/>
<path fill="#F4F4F4" opacity="1.000000" stroke="none" 
	d="
M82.869682,75.068565 
	C78.351799,77.149673 76.449745,75.155342 76.852806,70.846024 
	C77.157578,67.587524 73.628273,63.953514 77.592728,61.160950 
	C79.241989,62.456646 80.874832,63.739445 82.883415,65.317436 
	C81.775330,65.685318 80.448166,66.125931 79.136711,66.561333 
	C78.832855,70.039642 78.012100,73.685684 82.869682,75.068565 
z"/>
<path fill="#F4F4F4" opacity="1.000000" stroke="none" 
	d="
M68.833878,64.047638 
	C71.080376,64.140465 72.919464,64.235367 74.758545,64.330261 
	C67.130531,65.758156 71.044670,72.229271 69.011475,76.002609 
	C67.314079,72.057724 67.119179,68.108017 68.833878,64.047638 
z"/>
<path fill="#F6F6F6" opacity="1.000000" stroke="none" 
	d="
M63.977592,17.811600 
	C63.858105,19.507820 63.738628,20.727970 63.619148,21.948120 
	C63.235332,21.940826 62.851521,21.933535 62.467705,21.926241 
	C62.467705,16.325188 62.467705,10.724135 62.467705,5.123083 
	C62.971004,5.098804 63.474304,5.074524 63.977604,5.050245 
	C63.977604,9.145339 63.977604,13.240434 63.977592,17.811600 
z"/>
<path fill="#111111" opacity="1.000000" stroke="none" 
	d="
M3.845584,40.857445 
	C5.540270,40.461311 7.119835,40.416622 8.699401,40.371933 
	C8.689938,42.116535 8.929446,43.921471 8.529585,45.571457 
	C8.398026,46.114319 5.773952,46.656357 5.709062,46.520546 
	C4.897728,44.822525 4.347593,42.999702 3.845584,40.857445 
z"/>
<path fill="#111111" opacity="1.000000" stroke="none" 
	d="
M59.958206,73.627731 
	C58.553257,72.724480 56.984543,71.846336 56.631577,70.618660 
	C56.324432,69.550331 57.177185,67.932373 57.948059,66.869728 
	C58.287254,66.402138 60.168167,66.316879 60.521816,66.743607 
	C61.348763,67.741463 62.087742,69.157158 62.077713,70.397308 
	C62.069305,71.436539 60.949963,72.466789 59.958206,73.627731 
z"/>
</svg>